<svg width="268" height="77" viewBox="0 0 268 77" fill="none" xmlns="http://www.w3.org/2000/svg">
<path d="M17.536 16.464C20.7787 16.464 24.0213 17.1467 27.264 18.512L26.176 24.528L25.152 24.912C23.7867 23.9307 22.3787 23.1627 20.928 22.608C19.4773 22.0533 18.0907 21.776 16.768 21.776C14.6773 21.776 13.0133 22.352 11.776 23.504C10.5387 24.656 9.92 26 9.92 27.536C9.92 29.0293 10.5387 30.2667 11.776 31.248C13.0133 32.1867 14.9547 33.2747 17.6 34.512C19.904 35.6213 21.76 36.624 23.168 37.52C24.6187 38.416 25.856 39.6107 26.88 41.104C27.904 42.5547 28.416 44.304 28.416 46.352C28.416 48.5707 27.7973 50.6187 26.56 52.496C25.3653 54.3307 23.6587 55.8027 21.44 56.912C19.264 57.9787 16.768 58.512 13.952 58.512C12.0747 58.512 10.1333 58.2773 8.128 57.808C6.12267 57.3387 4.224 56.656 2.432 55.76L3.264 49.232L4.096 48.848C5.67467 50.3413 7.40267 51.472 9.28 52.24C11.2 52.9653 12.9707 53.328 14.592 53.328C16.8107 53.328 18.5813 52.752 19.904 51.6C21.2267 50.4053 21.888 48.9973 21.888 47.376C21.888 45.7547 21.248 44.4533 19.968 43.472C18.688 42.448 16.7253 41.3173 14.08 40.08C11.8187 39.0133 9.984 38.0533 8.576 37.2C7.168 36.304 5.952 35.1307 4.928 33.68C3.94667 32.2293 3.456 30.48 3.456 28.432C3.456 26.2133 4.05333 24.1867 5.248 22.352C6.44267 20.5173 8.10667 19.088 10.24 18.064C12.3733 16.9973 14.8053 16.464 17.536 16.464ZM42.8415 45.072L43.1615 58H36.4415L36.8895 45.648L36.4415 16.912H43.2255L42.8415 45.072ZM73.1325 41.552C76.0338 46.2027 79.4685 51.1733 83.4365 56.464L83.3725 57.232C81.3245 57.9147 79.2125 58.3627 77.0365 58.576L76.2685 58.064C72.7272 52.2613 69.8685 47.3547 67.6925 43.344H60.7165V45.072L61.0365 58H54.3165L54.7645 45.648L54.3165 16.912L68.2685 16.848C72.4072 16.848 75.6072 17.8933 77.8685 19.984C80.1298 22.032 81.2605 24.976 81.2605 28.816C81.2605 31.5467 80.5352 34.0213 79.0845 36.24C77.6765 38.416 75.6925 40.1867 73.1325 41.552ZM60.8445 37.968L67.8845 38.16C72.1938 36.8373 74.3485 33.8933 74.3485 29.328C74.3485 26.9387 73.6872 25.1467 72.3645 23.952C71.0845 22.7573 69.1218 22.1173 66.4765 22.032L61.0365 22.224L60.8445 37.968ZM115.137 52.368L115.521 52.944L115.073 58H90.8165L91.2645 45.648L90.8165 16.912H115.201L115.585 17.488L115.073 22.544L105.345 22.288L97.5365 22.352L97.3445 34.32L104.769 34.448L111.553 34.256L112.001 34.768L111.489 39.824L104.257 39.632L97.2805 39.76L97.2165 45.072L97.4085 52.624L105.217 52.688L115.137 52.368ZM155.019 45.712L155.211 58H148.107L128.779 27.216H128.331L128.267 44.24L128.459 58H122.443L122.763 45.84L122.507 16.912H129.483L148.875 47.696H149.387L149.259 17.232L155.403 16.784L155.019 45.712ZM190.762 52.368L191.146 52.944L190.698 58H166.442L166.89 45.648L166.442 16.912H190.826L191.21 17.488L190.698 22.544L180.97 22.288L173.162 22.352L172.97 34.32L180.394 34.448L187.178 34.256L187.626 34.768L187.114 39.824L179.882 39.632L172.906 39.76L172.842 45.072L173.034 52.624L180.842 52.688L190.762 52.368Z" fill="url(#paint0_linear_148_440)"/>
<line x1="203.5" y1="18" x2="203.5" y2="59" stroke="#1E1E1E"/>
<path d="M213.955 35.5V26.9688H217.043C217.98 26.9688 218.717 27.1523 219.252 27.5195C219.787 27.8828 220.055 28.4531 220.055 29.2305C220.055 29.6992 219.939 30.082 219.709 30.3789C219.482 30.6758 219.201 30.8828 218.865 31V31.0234C219.279 31.1406 219.619 31.3691 219.885 31.709C220.15 32.0488 220.283 32.4922 220.283 33.0391C220.283 33.8203 220.002 34.4258 219.439 34.8555C218.881 35.2852 218.141 35.5 217.219 35.5H213.955ZM215.484 34.3633H217.201C217.732 34.3633 218.121 34.2402 218.367 33.9941C218.617 33.7441 218.742 33.4062 218.742 32.9805C218.742 32.5625 218.617 32.2305 218.367 31.9844C218.121 31.7344 217.732 31.6094 217.201 31.6094H215.484V34.3633ZM215.484 30.5195H217.031C217.559 30.5195 217.938 30.4121 218.168 30.1973C218.402 29.9824 218.52 29.6836 218.52 29.3008C218.52 28.918 218.402 28.625 218.168 28.4219C217.938 28.2148 217.559 28.1113 217.031 28.1113H215.484V30.5195ZM221.795 35.5V26.9688H227.514V28.1582H223.336V30.5137H226.969V31.6973H223.336V34.3105H227.572V35.5H221.795ZM227.889 35.5L231.105 26.9219H232.693L235.945 35.5H234.293L232.066 29.3125C232.02 29.1797 231.979 29.0508 231.943 28.9258C231.908 28.8008 231.877 28.6738 231.85 28.5449H231.797C231.77 28.6738 231.738 28.8008 231.703 28.9258C231.672 29.0508 231.631 29.1797 231.58 29.3125L229.348 35.5H227.889ZM229.5 33.4785L229.898 32.3066H233.836L234.234 33.4844L229.5 33.4785ZM236.631 32.4941V26.9688H238.178V32.5352C238.178 33.2109 238.34 33.7012 238.664 34.0059C238.992 34.3066 239.424 34.457 239.959 34.457C240.494 34.457 240.924 34.3047 241.248 34C241.576 33.6953 241.74 33.207 241.74 32.5352V26.9688H243.252V32.4941C243.252 33.5723 242.932 34.373 242.291 34.8965C241.654 35.416 240.871 35.6758 239.941 35.6758C239.016 35.6758 238.232 35.416 237.592 34.8965C236.951 34.373 236.631 33.5723 236.631 32.4941ZM244.254 28.1582V26.9688H251.156V28.1582H248.479V35.5H246.932V28.1582H244.254ZM254.309 35.5V32.4297L251.332 26.9688H253.066L254.818 30.3203C254.881 30.4336 254.936 30.5449 254.982 30.6543C255.033 30.7598 255.078 30.8691 255.117 30.9824H255.164C255.207 30.8691 255.252 30.7598 255.299 30.6543C255.35 30.5449 255.404 30.4336 255.463 30.3203L257.244 26.9688H258.791L255.855 32.377V35.5H254.309ZM213.486 47.1035V46.9922H215.051V47.0977C215.051 47.5508 215.205 47.8926 215.514 48.123C215.826 48.3535 216.262 48.4688 216.82 48.4688C217.383 48.4688 217.812 48.3574 218.109 48.1348C218.406 47.9082 218.555 47.6133 218.555 47.25C218.555 46.8945 218.416 46.6172 218.139 46.418C217.865 46.2188 217.275 46.002 216.369 45.7676C215.428 45.5254 214.736 45.2129 214.295 44.8301C213.857 44.4473 213.639 43.9102 213.639 43.2188C213.639 42.5039 213.918 41.9219 214.477 41.4727C215.035 41.0195 215.799 40.793 216.768 40.793C217.732 40.793 218.502 41.0312 219.076 41.5078C219.654 41.9844 219.943 42.5918 219.943 43.3301V43.4414H218.396V43.3359C218.396 42.9375 218.26 42.6172 217.986 42.375C217.717 42.1289 217.311 42.0059 216.768 42.0059C216.232 42.0059 215.836 42.1055 215.578 42.3047C215.324 42.5039 215.197 42.7676 215.197 43.0957C215.197 43.4316 215.328 43.6895 215.59 43.8691C215.852 44.0449 216.416 44.2441 217.283 44.4668C218.217 44.7129 218.922 45.0391 219.398 45.4453C219.875 45.8477 220.113 46.4219 220.113 47.168C220.113 47.9297 219.814 48.5391 219.217 48.9961C218.623 49.4492 217.826 49.6758 216.826 49.6758C215.83 49.6758 215.023 49.4512 214.406 49.002C213.793 48.5488 213.486 47.916 213.486 47.1035ZM220.676 42.1582V40.9688H227.578V42.1582H224.9V49.5H223.354V42.1582H220.676ZM228.58 46.4941V40.9688H230.127V46.5352C230.127 47.2109 230.289 47.7012 230.613 48.0059C230.941 48.3066 231.373 48.457 231.908 48.457C232.443 48.457 232.873 48.3047 233.197 48C233.525 47.6953 233.689 47.207 233.689 46.5352V40.9688H235.201V46.4941C235.201 47.5723 234.881 48.373 234.24 48.8965C233.604 49.416 232.82 49.6758 231.891 49.6758C230.965 49.6758 230.182 49.416 229.541 48.8965C228.9 48.373 228.58 47.5723 228.58 46.4941ZM237.018 49.5V40.9688H239.812C240.965 40.9688 241.928 41.3262 242.701 42.041C243.475 42.7559 243.861 43.7344 243.861 44.9766V45.4922C243.861 46.7305 243.475 47.709 242.701 48.4277C241.928 49.1426 240.965 49.5 239.812 49.5H237.018ZM238.559 48.3223H239.801C240.551 48.3223 241.152 48.0781 241.605 47.5898C242.059 47.1016 242.285 46.4082 242.285 45.5098V44.959C242.285 44.0605 242.059 43.3672 241.605 42.8789C241.152 42.3906 240.551 42.1465 239.801 42.1465H238.559V48.3223ZM245.461 49.5V40.9688H247.008V49.5H245.461ZM248.602 45.4922V44.9766C248.602 43.6406 248.957 42.6094 249.668 41.8828C250.379 41.1562 251.295 40.793 252.416 40.793C253.537 40.793 254.455 41.1562 255.17 41.8828C255.885 42.6094 256.242 43.6406 256.242 44.9766V45.4922C256.242 46.8281 255.885 47.8594 255.17 48.5859C254.455 49.3125 253.537 49.6758 252.416 49.6758C251.295 49.6758 250.379 49.3125 249.668 48.5859C248.957 47.8594 248.602 46.8281 248.602 45.4922ZM250.178 45.5684C250.178 46.498 250.381 47.2129 250.787 47.7129C251.193 48.209 251.736 48.457 252.416 48.457C253.096 48.457 253.641 48.209 254.051 47.7129C254.461 47.2129 254.666 46.498 254.666 45.5684V44.9062C254.666 43.9727 254.461 43.2578 254.051 42.7617C253.641 42.2617 253.096 42.0117 252.416 42.0117C251.736 42.0117 251.193 42.2617 250.787 42.7617C250.381 43.2578 250.178 43.9727 250.178 44.9062V45.5684Z" fill="#1E1E1E"/>
<defs>
<linearGradient id="paint0_linear_148_440" x1="62.5" y1="68.5" x2="64.5" y2="-2.0718e-06" gradientUnits="userSpaceOnUse">
<stop stop-color="#ECD69C"/>
<stop offset="1" stop-color="#211B0C"/>
</linearGradient>
</defs>
</svg>
