<svg xmlns="http://www.w3.org/2000/svg" xml:space="preserve" width="57.315" height="57.315" version="1.0" style="shape-rendering:geometricPrecision;text-rendering:geometricPrecision;image-rendering:optimizeQuality;fill-rule:evenodd;clip-rule:evenodd" viewBox="0 0 1516.46 1516.46" xmlns:mydata="http://www.w3.org/2000/svg" mydata:contrastcolor="342800" mydata:template="Contrast" mydata:presentation="2.5" mydata:layouttype="undefined" mydata:specialfontid="undefined" mydata:id1="783" mydata:id2="232" mydata:companyname="sirene"><defs><linearGradient id="a" gradientUnits="userSpaceOnUse" x1="-920.83" y1="1361.39" x2="2425.91" y2="1361.39"><stop offset="0" style="stop-opacity:1;stop-color:#ac8400"/><stop offset="1" style="stop-opacity:1;stop-color:#fdee79"/></linearGradient></defs><g data-paper-data="{&quot;isGlobalGroup&quot;:true,&quot;bounds&quot;:{&quot;x&quot;:127.53497385114167,&quot;y&quot;:115,&quot;width&quot;:294.93005229771666,&quot;height&quot;:240}}" text-anchor="none"><g data-paper-data="{&quot;initialText&quot;:&quot;S&quot;,&quot;fillRule&quot;:&quot;nonzero&quot;,&quot;selectedEffects&quot;:{&quot;container&quot;:&quot;square_simple_filledplus_rounded_upright&quot;,&quot;transformation&quot;:&quot;&quot;,&quot;pattern&quot;:&quot;&quot;},&quot;relativeBoundsIconToContainer&quot;:{&quot;top&quot;:-0.00027965101120223067,&quot;left&quot;:0.0006268150971833842},&quot;widthRatioIconToContainer&quot;:0.5648334246990432,&quot;heightRatioIconToContainer&quot;:0.8022851686452225,&quot;bounds&quot;:{&quot;x&quot;:208.1659135021825,&quot;y&quot;:115,&quot;width&quot;:133.66817299563508,&quot;height&quot;:133.66816631222716},&quot;isIcon&quot;:&quot;true&quot;,&quot;iconType&quot;:&quot;initial&quot;,&quot;iconStyle&quot;:&quot;standalone&quot;,&quot;rawInitialId&quot;:461,&quot;suitableAsStandaloneIcon&quot;:true}"><path d="M207.35 1431.97c-67.87 0-122.88-55.01-122.88-122.86V207.36c0-67.86 55.01-122.86 122.86-122.86h1101.76c67.86 0 122.86 55 122.86 122.86v1101.75c0 67.85-55.01 122.86-122.86 122.86zm577-806.78c-75.28-25.66-155.71-82.14-236.13-213.89-41.07-138.61 22.24-249.82 165.98-261.8-232.71 3.41-381.58 143.74-383.29 343.93-1.71 217.32 183.08 313.14 388.43 408.97 217.31 112.94 265.23 177.96 263.52 284.06 0 77-71.87 172.82-201.92 179.67 219.02-3.43 373.02-123.21 402.12-277.22 41.07-258.38-215.61-373.02-398.7-463.72m345.66-456.87c-78.71 78.71-162.56 65.01-244.69 51.33 164.28 37.64 237.85 205.35 244.69 299.45zm-782 1175.56c73.59-73.58 152.3-65.03 232.72-53.05-142.02-30.8-222.45-191.65-232.72-289.18zm1168.43-34.77v1.09l-.17 7.75-.02.62-.42 7.38-.05.65-.68 7.38-.08.65-.97 7.34-.11.69-1.23 7.29-.13.69-1.54 7.25-.16.7-1.83 7.17-.19.72-2.12 7.09-.23.72-2.42 6.99-.26.7-2.72 6.9-.28.68-3 6.78-.32.69-3.28 6.62-.34.67-3.55 6.49-.36.63-3.83 6.36-.38.6-4.08 6.18-.4.58-4.31 6.01-.4.56-4.54 5.84-.43.53-4.76 5.67-.42.47-4.95 5.51-.42.45-5.15 5.32-.99.99-5.58 5.35-.46.44-5.53 4.92-.49.42-5.7 4.73-.52.42-5.88 4.5-.54.41-6.05 4.27-.58.4-6.2 4.04-.62.39-6.36 3.77-.65.37-6.51 3.51-.66.34-6.65 3.25-.69.3-6.79 2.95-.68.3-6.92 2.67-.71.26-7.01 2.37-.7.23-7.12 2.07-.7.2-7.19 1.77-.69.16-7.26 1.5-.68.12-7.31 1.2-.68.11-7.35.92c-.21.03-.43.06-.65.06l-7.37.65-.64.05-7.39.38-.62.03-7.4.11-72.84.01H206.26l-7.75-.17-.61-.02-7.4-.42-.65-.05-7.37-.68-.66-.08-7.34-.97-.68-.1-7.29-1.25-.69-.12-7.26-1.55-.7-.16-7.17-1.82-.7-.2-7.1-2.12-.7-.22-7-2.42-.71-.26-6.88-2.71-.71-.29-6.76-3-.68-.32-6.64-3.28-.65-.34-6.5-3.55-.64-.36-6.34-3.83-.61-.39-6.19-4.07-.56-.4-6.03-4.31-.55-.4-5.85-4.54-.51-.42-5.67-4.76-.49-.42-5.5-4.96-.46-.42-5.32-5.15-.98-.99-5.36-5.59-.42-.45-4.93-5.52-.42-.5-4.73-5.69-.41-.52-4.52-5.87-.4-.56-4.28-6.04-.4-.58-4.04-6.21-.38-.61-3.78-6.36-.36-.65-3.52-6.51-.34-.66-3.25-6.66-.3-.68-2.95-6.78-.3-.71-2.66-6.89-.26-.72-2.38-7.01-.22-.7-2.08-7.11-.19-.71-1.78-7.18-.16-.71-1.5-7.26-.11-.68-1.21-7.3-.1-.69-.92-7.34-.07-.67-.65-7.37-.04-.64-.39-7.39-.02-.62-.11-7.4-.02-72.84V206.26l.18-7.75.02-.61.42-7.4c-.01-.2 0-.42.03-.64l.68-7.37.08-.66.97-7.34.1-.68 1.25-7.3.12-.69 1.55-7.25.16-.7 1.82-7.17.2-.7 2.12-7.1.23-.71 2.41-6.99.27-.71 2.71-6.88.28-.71 3.01-6.76.31-.68 3.28-6.64.34-.65 3.55-6.5.37-.64 3.82-6.34.38-.61 4.08-6.19.39-.56 4.31-6.03.41-.54 4.54-5.85.43-.52 4.76-5.67.42-.49 4.95-5.5.42-.45 5.15-5.32.99-.99 5.59-5.36.46-.42 5.52-4.93.49-.42 5.7-4.73.52-.41 5.88-4.51.54-.41 6.05-4.28.58-.39 6.2-4.04.61-.39 6.37-3.78.64-.36 6.52-3.52.65-.34 6.66-3.23c.23-.13.45-.24.68-.33l6.8-2.95c.22-.11.45-.21.68-.3l6.92-2.66.7-.25 7.01-2.39.71-.22 7.11-2.08.7-.19 7.19-1.78.7-.16 7.26-1.49.68-.13 7.31-1.2.68-.11 7.35-.92.66-.06L191 .58l.64-.05 7.39-.38.62-.03 7.41-.11 35.8-.01h1067.33l7.75.18.62.02 7.39.42c.22 0 .44.01.64.04l7.38.68.65.08 7.35.97.68.1 7.29 1.25.69.12 7.25 1.55.71.16 7.16 1.82.72.2 7.09 2.12.71.22 6.99 2.42.71.26 6.9 2.71.68.3 6.77 3 .68.32 6.64 3.28.66.33 6.5 3.55.63.38 6.36 3.81.6.39 6.18 4.07.57.4 6.02 4.31.56.4 5.84 4.54.53.43 5.67 4.76.48.42 5.5 4.96.45.42 5.32 5.15.99.98 5.35 5.59.44.46 4.92 5.53.42.48 4.73 5.7.41.52 4.51 5.88.41.54 4.27 6.05.4.58 4.04 6.2.39.62 3.78 6.37.36.64 3.52 6.51.33.67 3.24 6.65c.12.22.23.44.32.67l2.95 6.8c.1.22.2.45.29.69l2.67 6.9.26.71 2.37 7.01.23.7 2.07 7.11.18.71 1.8 7.19.15.69 1.49 7.26.14.68 1.2 7.32.1.68.92 7.34.07.66.65 7.37.04.64.39 7.39.02.63.11 7.4.02 35.8zm-35.57-1066.25v-35.2l-.12-7.09-.34-6.78-.6-6.72-.84-6.68-1.08-6.62-1.36-6.55-1.61-6.49-1.87-6.39-2.13-6.3-2.4-6.2-2.65-6.1-2.92-5.98-3.17-5.88-3.41-5.74-3.64-5.61-3.88-5.46-4.09-5.34-4.31-5.19-4.52-5.06-4.65-4.88-.5-.5-5.1-4.94-5.03-4.53-5.18-4.34-5.31-4.13-5.45-3.9-5.6-3.69-5.72-3.43-5.85-3.2-5.96-2.95-6.08-2.7-6.2-2.43-6.3-2.18-6.37-1.91-6.47-1.64-6.55-1.39-6.61-1.14-6.68-.87-6.71-.63-6.76-.38-6.74-.15-1102.48.01-7.09.11-6.77.34-6.73.6-6.67.84-6.63 1.09-6.55 1.35-6.48 1.61-6.4 1.88-6.29 2.13-6.22 2.39-6.1 2.67-5.99 2.9-5.86 3.18-5.74 3.4-5.61 3.64-5.46 3.88-5.34 4.1L96.52 76l-5.06 4.51-4.88 4.66-.5.51-4.94 5.1-4.53 5.03-4.34 5.17-4.13 5.31-3.9 5.46-3.69 5.59-3.44 5.72-3.21 5.85-2.95 5.96-2.69 6.1-2.42 6.18-2.18 6.3-1.91 6.38-1.65 6.47-1.39 6.55-1.12 6.61-.88 6.68-.62 6.71-.39 6.76-.15 6.75v1102.45l.12 7.1.34 6.76.6 6.73.84 6.67 1.08 6.62 1.36 6.56 1.61 6.47 1.87 6.41 2.13 6.3 2.4 6.21 2.65 6.1 2.92 5.98 3.17 5.86 3.41 5.75 3.64 5.6 3.88 5.48 4.09 5.33 4.31 5.19 4.52 5.06 4.65 4.88.51.49 5.11 4.94 5.02 4.54 5.18 4.33 5.31 4.13 5.45 3.92 5.6 3.67 5.72 3.45 5.84 3.2 5.97 2.95 6.09 2.68 6.2 2.44 6.28 2.17 6.39 1.92 6.47 1.63 6.55 1.39 6.61 1.13 6.67.87 6.72.63 6.76.38 6.75.15h1102.44l7.1-.11 6.76-.34 6.73-.6 6.68-.84 6.62-1.09 6.56-1.35 6.47-1.61 6.4-1.87 6.31-2.13 6.19-2.4 6.11-2.65 5.97-2.92 5.88-3.17 5.74-3.41 5.61-3.64 5.47-3.88 5.33-4.09 5.2-4.31 5.06-4.52 4.88-4.65.49-.5 4.94-5.11 4.53-5.02 4.34-5.18 4.13-5.31 3.9-5.45 3.69-5.6 3.45-5.71 3.19-5.85 2.95-5.97 2.69-6.08 2.43-6.2 2.18-6.29 1.91-6.38 1.64-6.46 1.4-6.56 1.12-6.6.87-6.68.63-6.71.39-6.78.14-6.74z" data-paper-data="{&quot;isPathIcon&quot;:true}" style="fill:url(#a);fill-rule:nonzero"/></g></g></svg>