<svg width="268" height="77" viewBox="0 0 268 77" fill="none" xmlns="http://www.w3.org/2000/svg">
  <path d="M17.536 16.464q4.864 0 9.728 2.048l-1.088 6.016-1.024.384a18.7 18.7 0 0 0-4.224-2.304q-2.175-.832-4.16-.832-3.136 0-4.992 1.728T9.92 27.536q0 2.24 1.856 3.712 1.856 1.408 5.824 3.264 3.456 1.665 5.568 3.008 2.175 1.343 3.712 3.584 1.536 2.175 1.536 5.248 0 3.328-1.856 6.144-1.792 2.752-5.12 4.416-3.264 1.6-7.488 1.6-2.816 0-5.824-.704a26 26 0 0 1-5.696-2.048l.832-6.528.832-.384q2.369 2.24 5.184 3.392 2.88 1.088 5.312 1.088 3.329 0 5.312-1.728 1.984-1.793 1.984-4.224t-1.92-3.904q-1.92-1.536-5.888-3.392-3.392-1.6-5.504-2.88-2.112-1.344-3.648-3.52-1.472-2.175-1.472-5.248 0-3.328 1.792-6.08t4.992-4.288q3.2-1.6 7.296-1.6m25.306 28.608L43.162 58h-6.72l.447-12.352-.448-28.736h6.784zm30.29-3.52q4.353 6.975 10.304 14.912l-.064.768a29 29 0 0 1-6.335 1.344l-.769-.512q-5.311-8.705-8.576-14.72h-6.975v1.728L61.037 58h-6.72l.447-12.352-.448-28.736 13.953-.064q6.207 0 9.6 3.136 3.39 3.072 3.391 8.832 0 4.095-2.175 7.424-2.112 3.264-5.953 5.312m-12.288-3.584 7.04.192q6.465-1.985 6.465-8.832 0-3.584-1.984-5.376-1.92-1.793-5.888-1.92l-5.44.192zm54.293 14.4.384.576-.448 5.056H90.817l.448-12.352-.448-28.736H115.2l.384.576-.512 5.056-9.728-.256-7.808.064-.193 11.968 7.425.128 6.784-.192.448.512-.512 5.056-7.232-.192-6.977.128-.064 5.312.193 7.552 7.808.064zm39.882-6.656L155.211 58h-7.104l-19.328-30.784h-.448l-.064 17.024.192 13.76h-6.016l.32-12.16-.256-28.928h6.976l19.392 30.784h.512l-.128-30.464 6.144-.448zm35.743 6.656.384.576-.448 5.056h-24.256l.448-12.352-.448-28.736h24.384l.384.576-.512 5.056-9.728-.256-7.808.064-.192 11.968 7.424.128 6.784-.192.448.512-.512 5.056-7.232-.192-6.976.128-.064 5.312.192 7.552 7.808.064z" fill="url(#a)"/>
  <path class="color" stroke="currentColor" d="M203.5 18v41"/>
  <path class="color" d="M214.094 35.5v-9.953h3.568q1.6 0 2.516.642.916.636.916 1.99 0 .82-.39 1.346-.39.52-.964.725v.027q.705.206 1.162.8.459.589.458 1.552 0 1.367-.964 2.119-.957.752-2.536.752zm1.811-1.347h1.928q.882 0 1.292-.43.41-.431.41-1.17 0-.723-.41-1.148-.41-.43-1.292-.43h-1.928zm0-4.47h1.73q.874 0 1.258-.37.389-.369.389-1.032t-.389-1.018q-.384-.363-1.258-.363h-1.73zm7.185 5.817v-9.953h6.549v1.422h-4.724v2.7h4.102v1.408h-4.102v3.008h4.799V35.5zm6.945 0 3.78-10.008h1.86l3.828 10.008h-1.955l-2.625-7.198q-.082-.225-.137-.438l-.096-.43h-.061q-.04.218-.096.43a5 5 0 0 1-.137.438l-2.625 7.198zm1.969-2.331.458-1.395h4.491l.458 1.395zm8.237-1.176v-6.446h1.832v6.521q0 1.176.547 1.682t1.442.506q.889 0 1.436-.506t.547-1.682v-6.521h1.798v6.446q0 1.9-1.101 2.81-1.094.902-2.693.902-1.6 0-2.707-.902-1.101-.91-1.101-2.81m8.75-5.024v-1.422h7.916v1.422h-3.035V35.5h-1.839v-8.531zm11.546 8.531v-3.589l-3.452-6.364h2.044l2.03 3.876a7 7 0 0 1 .335.745h.048q.068-.185.144-.362.081-.178.191-.383l2.064-3.876h1.832l-3.397 6.289V35.5zM213.54 48.71v-.15h1.866v.13q0 .795.513 1.19.519.39 1.449.39t1.422-.383q.5-.383.499-1.012 0-.622-.478-.97-.472-.35-1.969-.746-1.586-.43-2.359-1.107-.765-.677-.772-1.88 0-1.264.964-2.044.97-.786 2.632-.786 1.654 0 2.645.82.991.813.991 2.133v.143h-1.832v-.13q0-.683-.458-1.1-.45-.423-1.34-.424-.895 0-1.319.342t-.424.93q0 .56.445.861.45.301 1.948.71 1.566.431 2.372 1.136.807.698.807 2.01 0 1.36-1.026 2.146-1.025.786-2.741.786-1.709 0-2.775-.78-1.06-.779-1.06-2.214m8.231-5.741v-1.422h7.916v1.422h-3.036v8.53h-1.839v-8.531zm9.05 5.024v-6.446h1.832v6.521q0 1.176.547 1.682t1.443.506q.889 0 1.435-.506.547-.506.547-1.682v-6.521h1.798v6.446q0 1.9-1.101 2.81-1.094.902-2.693.902-1.6 0-2.707-.902-1.101-.91-1.101-2.81m9.687 3.507v-9.953h3.213q1.975 0 3.301 1.244 1.327 1.237 1.327 3.418v.629q0 2.18-1.327 3.425-1.326 1.237-3.301 1.237zm1.825-1.401h1.367q1.25 0 2.017-.834.765-.834.765-2.4v-.683q0-1.566-.765-2.393-.766-.834-2.017-.834h-1.367zm7.82 1.401v-9.953h1.839V51.5zm3.651-4.662v-.629q0-2.351 1.223-3.61 1.224-1.257 3.145-1.257 1.928 0 3.158 1.258 1.23 1.257 1.231 3.609v.629q0 2.351-1.231 3.61-1.23 1.257-3.158 1.257-1.921 0-3.145-1.258-1.223-1.257-1.223-3.61m1.873.123q0 1.62.677 2.46.682.835 1.818.835 1.141 0 1.825-.834.69-.84.691-2.461v-.875q0-1.62-.691-2.454-.684-.84-1.825-.841-1.135 0-1.818.84-.678.835-.677 2.455z" fill="currentColor"/>
  <defs>
    <linearGradient id="a" x1="62.5" y1="68.5" x2="64.5" y2="0" gradientUnits="userSpaceOnUse"><stop stop-color="#ECD69C"/><stop offset="1" stop-color="#211B0C"/></linearGradient></defs></svg>