<svg width="268" height="77" viewBox="0 0 268 77" fill="none" xmlns="http://www.w3.org/2000/svg">
<path fill="url(#linear-gradient)" d="M17.536 16.464C20.7787 16.464 24.0213 17.1467 27.264 18.512L26.176 24.528L25.152 24.912C23.7867 23.9307 22.3787 23.1627 20.928 22.608C19.4773 22.0533 18.0907 21.776 16.768 21.776C14.6773 21.776 13.0133 22.352 11.776 23.504C10.5387 24.656 9.92 26 9.92 27.536C9.92 29.0293 10.5387 30.2667 11.776 31.248C13.0133 32.1867 14.9547 33.2747 17.6 34.512C19.904 35.6213 21.76 36.624 23.168 37.52C24.6187 38.416 25.856 39.6107 26.88 41.104C27.904 42.5547 28.416 44.304 28.416 46.352C28.416 48.5707 27.7973 50.6187 26.56 52.496C25.3653 54.3307 23.6587 55.8027 21.44 56.912C19.264 57.9787 16.768 58.512 13.952 58.512C12.0747 58.512 10.1333 58.2773 8.128 57.808C6.12267 57.3387 4.224 56.656 2.432 55.76L3.264 49.232L4.096 48.848C5.67467 50.3413 7.40267 51.472 9.28 52.24C11.2 52.9653 12.9707 53.328 14.592 53.328C16.8107 53.328 18.5813 52.752 19.904 51.6C21.2267 50.4053 21.888 48.9973 21.888 47.376C21.888 45.7547 21.248 44.4533 19.968 43.472C18.688 42.448 16.7253 41.3173 14.08 40.08C11.8187 39.0133 9.984 38.0533 8.576 37.2C7.168 36.304 5.952 35.1307 4.928 33.68C3.94667 32.2293 3.456 30.48 3.456 28.432C3.456 26.2133 4.05333 24.1867 5.248 22.352C6.44267 20.5173 8.10667 19.088 10.24 18.064C12.3733 16.9973 14.8053 16.464 17.536 16.464ZM42.8415 45.072L43.1615 58H36.4415L36.8895 45.648L36.4415 16.912H43.2255L42.8415 45.072ZM73.1325 41.552C76.0338 46.2027 79.4685 51.1733 83.4365 56.464L83.3725 57.232C81.3245 57.9147 79.2125 58.3627 77.0365 58.576L76.2685 58.064C72.7272 52.2613 69.8685 47.3547 67.6925 43.344H60.7165V45.072L61.0365 58H54.3165L54.7645 45.648L54.3165 16.912L68.2685 16.848C72.4072 16.848 75.6072 17.8933 77.8685 19.984C80.1298 22.032 81.2605 24.976 81.2605 28.816C81.2605 31.5467 80.5352 34.0213 79.0845 36.24C77.6765 38.416 75.6925 40.1867 73.1325 41.552ZM60.8445 37.968L67.8845 38.16C72.1938 36.8373 74.3485 33.8933 74.3485 29.328C74.3485 26.9387 73.6872 25.1467 72.3645 23.952C71.0845 22.7573 69.1218 22.1173 66.4765 22.032L61.0365 22.224L60.8445 37.968ZM115.137 52.368L115.521 52.944L115.073 58H90.8165L91.2645 45.648L90.8165 16.912H115.201L115.585 17.488L115.073 22.544L105.345 22.288L97.5365 22.352L97.3445 34.32L104.769 34.448L111.553 34.256L112.001 34.768L111.489 39.824L104.257 39.632L97.2805 39.76L97.2165 45.072L97.4085 52.624L105.217 52.688L115.137 52.368ZM155.019 45.712L155.211 58H148.107L128.779 27.216H128.331L128.267 44.24L128.459 58H122.443L122.763 45.84L122.507 16.912H129.483L148.875 47.696H149.387L149.259 17.232L155.403 16.784L155.019 45.712ZM190.762 52.368L191.146 52.944L190.698 58H166.442L166.89 45.648L166.442 16.912H190.826L191.21 17.488L190.698 22.544L180.97 22.288L173.162 22.352L172.97 34.32L180.394 34.448L187.178 34.256L187.626 34.768L187.114 39.824L179.882 39.632L172.906 39.76L172.842 45.072L173.034 52.624L180.842 52.688L190.762 52.368Z"/>
<line class="brand-line" x1="203.5" y1="18" x2="203.5" y2="59"/>
<path class="brand-title" d="M214.094 35.5V25.5469H217.662C218.729 25.5469 219.567 25.7611 220.178 26.1895C220.788 26.6133 221.094 27.2764 221.094 28.1787C221.094 28.7256 220.964 29.1745 220.704 29.5254C220.444 29.8717 220.123 30.1133 219.74 30.25V30.2773C220.21 30.4141 220.597 30.6807 220.902 31.0771C221.208 31.4691 221.36 31.9863 221.36 32.6289C221.36 33.5404 221.039 34.2467 220.396 34.748C219.758 35.2493 218.913 35.5 217.86 35.5H214.094ZM215.905 34.1533H217.833C218.421 34.1533 218.852 34.0098 219.125 33.7227C219.398 33.4355 219.535 33.0459 219.535 32.5537C219.535 32.0706 219.398 31.6878 219.125 31.4053C218.852 31.1182 218.421 30.9746 217.833 30.9746H215.905V34.1533ZM215.905 29.6826H217.635C218.218 29.6826 218.637 29.5596 218.893 29.3135C219.152 29.0674 219.282 28.7233 219.282 28.2812C219.282 27.8392 219.152 27.4997 218.893 27.2627C218.637 27.0212 218.218 26.9004 217.635 26.9004H215.905V29.6826ZM223.09 35.5V25.5469H229.639V26.9688H224.915V29.6689H229.017V31.0771H224.915V34.085H229.714V35.5H223.09ZM230.035 35.5L233.815 25.4922H235.675L239.503 35.5H237.548L234.923 28.3018C234.868 28.1514 234.823 28.0055 234.786 27.8643C234.754 27.723 234.722 27.5794 234.69 27.4336H234.629C234.602 27.5794 234.57 27.723 234.533 27.8643C234.497 28.0055 234.451 28.1514 234.396 28.3018L231.771 35.5H230.035ZM232.004 33.1689L232.462 31.7744H236.953L237.411 33.1689H232.004ZM240.241 31.9932V25.5469H242.073V32.0684C242.073 32.8522 242.256 33.4128 242.62 33.75C242.985 34.0872 243.465 34.2559 244.062 34.2559C244.655 34.2559 245.133 34.0872 245.498 33.75C245.863 33.4128 246.045 32.8522 246.045 32.0684V25.5469H247.843V31.9932C247.843 33.2601 247.476 34.1966 246.742 34.8027C246.013 35.4043 245.115 35.7051 244.049 35.7051C242.982 35.7051 242.08 35.4043 241.342 34.8027C240.608 34.1966 240.241 33.2601 240.241 31.9932ZM248.991 26.9688V25.5469H256.907V26.9688H253.872V35.5H252.033V26.9688H248.991ZM260.537 35.5V31.9111L257.085 25.5469H259.129L261.159 29.4229C261.228 29.555 261.289 29.6826 261.344 29.8057C261.398 29.9242 261.449 30.0449 261.494 30.168H261.542C261.588 30.0449 261.635 29.9242 261.686 29.8057C261.74 29.6872 261.804 29.5596 261.877 29.4229L263.941 25.5469H265.773L262.376 31.8359V35.5H260.537ZM213.54 48.7109V48.5605H215.406V48.6904C215.406 49.2191 215.577 49.6156 215.919 49.8799C216.265 50.1396 216.748 50.2695 217.368 50.2695C217.988 50.2695 218.462 50.1419 218.79 49.8867C219.123 49.6315 219.289 49.2943 219.289 48.875C219.289 48.4603 219.13 48.1367 218.811 47.9043C218.496 47.6719 217.84 47.4235 216.842 47.1592C215.785 46.8721 214.998 46.5029 214.483 46.0518C213.973 45.6006 213.715 44.974 213.711 44.1719C213.711 43.3288 214.032 42.6475 214.675 42.1279C215.322 41.6038 216.199 41.3418 217.307 41.3418C218.41 41.3418 219.291 41.6152 219.952 42.1621C220.613 42.7044 220.943 43.4154 220.943 44.2949V44.4385H219.111V44.3086C219.111 43.8529 218.959 43.486 218.653 43.208C218.353 42.9255 217.906 42.7842 217.313 42.7842C216.716 42.7842 216.277 42.8981 215.994 43.126C215.712 43.3538 215.57 43.6637 215.57 44.0557C215.57 44.4294 215.718 44.7165 216.015 44.917C216.315 45.1175 216.965 45.3545 217.963 45.6279C219.007 45.915 219.797 46.2933 220.335 46.7627C220.873 47.2275 221.142 47.8975 221.142 48.7725C221.142 49.6794 220.8 50.3949 220.116 50.9189C219.433 51.443 218.519 51.7051 217.375 51.7051C216.236 51.7051 215.311 51.4453 214.6 50.9258C213.893 50.4062 213.54 49.668 213.54 48.7109ZM221.771 42.9688V41.5469H229.687V42.9688H226.651V51.5H224.812V42.9688H221.771ZM230.821 47.9932V41.5469H232.653V48.0684C232.653 48.8522 232.836 49.4128 233.2 49.75C233.565 50.0872 234.046 50.2559 234.643 50.2559C235.235 50.2559 235.714 50.0872 236.078 49.75C236.443 49.4128 236.625 48.8522 236.625 48.0684V41.5469H238.423V47.9932C238.423 49.2601 238.056 50.1966 237.322 50.8027C236.593 51.4043 235.695 51.7051 234.629 51.7051C233.562 51.7051 232.66 51.4043 231.922 50.8027C231.188 50.1966 230.821 49.2601 230.821 47.9932ZM240.508 51.5V41.5469H243.721C245.038 41.5469 246.138 41.9616 247.022 42.791C247.907 43.6159 248.349 44.7552 248.349 46.209V46.8379C248.349 48.2917 247.907 49.4333 247.022 50.2627C246.138 51.0876 245.038 51.5 243.721 51.5H240.508ZM242.333 50.0986H243.7C244.534 50.0986 245.206 49.8206 245.717 49.2646C246.227 48.7087 246.482 47.9089 246.482 46.8652V46.1816C246.482 45.138 246.227 44.3405 245.717 43.7891C245.206 43.2331 244.534 42.9551 243.7 42.9551H242.333V50.0986ZM250.153 51.5V41.5469H251.992V51.5H250.153ZM253.804 46.8379V46.209C253.804 44.6413 254.212 43.4382 255.027 42.5996C255.843 41.7611 256.891 41.3418 258.172 41.3418C259.457 41.3418 260.51 41.7611 261.33 42.5996C262.15 43.4382 262.561 44.6413 262.561 46.209V46.8379C262.561 48.4056 262.15 49.6087 261.33 50.4473C260.51 51.2858 259.457 51.7051 258.172 51.7051C256.891 51.7051 255.843 51.2858 255.027 50.4473C254.212 49.6087 253.804 48.4056 253.804 46.8379ZM255.677 46.9609C255.677 48.041 255.902 48.8613 256.354 49.4219C256.809 49.9779 257.415 50.2559 258.172 50.2559C258.933 50.2559 259.541 49.9779 259.997 49.4219C260.457 48.8613 260.688 48.041 260.688 46.9609V46.0859C260.688 45.0059 260.457 44.1878 259.997 43.6318C259.541 43.0713 258.933 42.791 258.172 42.791C257.415 42.791 256.809 43.0713 256.354 43.6318C255.902 44.1878 255.677 45.0059 255.677 46.0859V46.9609Z"/>
</svg>
