<svg width="16" height="16" viewBox="0 0 16 16" fill="none" xmlns="http://www.w3.org/2000/svg">
<path d="M2.52674 0.669918C2.0683 0.211476 1.32501 0.211476 0.866573 0.669918C0.408132 1.12836 0.408132 1.87164 0.866573 2.33008L2.52674 0.669918ZM14.6967 15.6739C15.345 15.6739 15.8706 15.1483 15.8706 14.5V3.93478C15.8706 3.28645 15.345 2.76087 14.6967 2.76087C14.0483 2.76087 13.5227 3.28645 13.5227 3.93478V13.3261H4.13144C3.4831 13.3261 2.95752 13.8517 2.95752 14.5C2.95752 15.1483 3.4831 15.6739 4.13144 15.6739H14.6967ZM0.866573 2.33008L13.8666 15.3301L15.5267 13.6699L2.52674 0.669918L0.866573 2.33008Z" fill="#FDF9F9"/>
</svg>
