<svg width="58" height="58" viewBox="0 0 58 58"  fill="currentColor" xmlns="http://www.w3.org/2000/svg">
<path  d="M36.8825 12H19.6392C14.8754 12 11 15.8658 11 20.6177V36.3536C11 41.1055 14.8754 44.9713 19.6392 44.9713H36.8825C41.6463 44.9713 45.5217 41.1055 45.5217 36.3536V20.6177C45.5217 15.8658 41.6463 12 36.8825 12ZM14.0476 20.6177C14.0476 17.5426 16.5564 15.0401 19.6392 15.0401H36.8825C39.9653 15.0401 42.4741 17.5426 42.4741 20.6177V36.3536C42.4741 39.4287 39.9653 41.9312 36.8825 41.9312H19.6392C16.5564 41.9312 14.0476 39.4287 14.0476 36.3536V20.6177Z" fill="currentColor"/>
<path d="M28.2606 36.4997C32.6905 36.4997 36.2965 32.9046 36.2965 28.4837C36.2965 24.0629 32.6924 20.4678 28.2606 20.4678C23.8287 20.4678 20.2246 24.0629 20.2246 28.4837C20.2246 32.9046 23.8287 36.4997 28.2606 36.4997ZM28.2606 23.5098C31.0114 23.5098 33.2488 25.7417 33.2488 28.4857C33.2488 31.2297 31.0114 33.4615 28.2606 33.4615C25.5097 33.4615 23.2723 31.2297 23.2723 28.4857C23.2723 25.7417 25.5097 23.5098 28.2606 23.5098Z" fill="currentColor"/>
<path d="M37.0407 21.763C38.2336 21.763 39.2058 20.795 39.2058 19.6032C39.2058 18.4113 38.2355 17.4434 37.0407 17.4434C35.8458 17.4434 34.8755 18.4113 34.8755 19.6032C34.8755 20.795 35.8458 21.763 37.0407 21.763Z" fill="currentColor"/>
</svg>
