<svg width="50" height="49" viewBox="0 0 50 49" fill="none" xmlns="http://www.w3.org/2000/svg">
<g clip-path="url(#clip0_6_1966)">
<path d="M23.2848 45.7448C21.4704 46.9131 19.3108 47.4251 17.165 47.1959C15.0192 46.9666 13.0165 46.0101 11.4898 44.4848L10.1598 43.1548C9.56995 42.5584 9.23906 41.7537 9.23906 40.9148C9.23906 40.0762 9.56995 39.2712 10.1598 38.6748L15.7598 33.1098C16.3502 32.522 17.1493 32.1921 17.9823 32.1921C18.8154 32.1921 19.6145 32.522 20.2048 33.1098C20.8011 33.6997 21.6061 34.0306 22.4448 34.0306C23.2836 34.0306 24.0885 33.6997 24.6848 33.1098L33.6098 24.1848C34.1998 23.5885 34.5307 22.7836 34.5307 21.9448C34.5307 21.106 34.1998 20.3011 33.6098 19.7048C33.0221 19.1144 32.6921 18.3153 32.6921 17.4823C32.6921 16.6493 33.0221 15.8501 33.6098 15.2598L38.9997 9.65979C39.5961 9.06987 40.4011 8.73901 41.2397 8.73901C42.0787 8.73901 42.8836 9.06987 43.4797 9.65979L44.8097 10.9898C46.3623 12.4949 47.3518 14.487 47.6129 16.6335C47.8743 18.7801 47.3913 20.9513 46.2447 22.7848C40.1417 31.8455 32.3456 39.6418 23.2848 45.7448Z" stroke="currentColor" stroke-width="3.5" stroke-linecap="round" stroke-linejoin="round"/>
<path d="M25 1.75C22.0124 1.75 19.0541 2.33844 16.294 3.48174C13.5338 4.62504 11.0259 6.30081 8.91334 8.41334C6.80077 10.5259 5.12504 13.0338 3.98174 15.794C2.83845 18.5541 2.25 21.5124 2.25 24.5" stroke="currentColor" stroke-width="3.5" stroke-linecap="round" stroke-linejoin="round"/>
<path d="M25 10.5C21.287 10.5 17.726 11.975 15.1005 14.6005C12.475 17.226 11 20.787 11 24.5" stroke="currentColor" stroke-width="3.5" stroke-linecap="round" stroke-linejoin="round"/>
</g>
<defs>
<clipPath id="clip0_6_1966">
<rect width="49" height="49" fill="currentColor" transform="translate(0.5)"/>
</clipPath>
</defs>
</svg>
