<svg width="58" height="58" viewBox="0 0 58 58" fill="none" xmlns="http://www.w3.org/2000/svg">
<path d="M11.4629 27.7238C11.5405 27.685 11.6182 27.6481 11.6939 27.6132C13.0098 27.0037 14.3432 26.4332 15.6747 25.8625C15.7465 25.8625 15.8668 25.7791 15.9347 25.7519C16.0376 25.7073 16.1405 25.6646 16.2433 25.6199C16.4413 25.5345 16.6393 25.4511 16.8353 25.3657C17.2313 25.1968 17.6252 25.0279 18.0212 24.8591C18.8111 24.5213 19.601 24.1836 20.391 23.844C21.9709 23.1685 23.5527 22.4912 25.1326 21.8158C26.7125 21.1403 28.2943 20.463 29.8742 19.7875C31.4541 19.1121 33.0359 18.4347 34.6158 17.7593C36.1957 17.0839 37.7776 16.4065 39.3575 15.731C39.7088 15.5796 40.0892 15.3545 40.4657 15.2885C40.7821 15.2322 41.0906 15.1235 41.409 15.0634C42.0126 14.9489 42.6783 14.9023 43.2567 15.1526C43.4566 15.24 43.641 15.3623 43.7943 15.5156C44.528 16.2415 44.4251 17.4332 44.2698 18.4541C43.1888 25.5694 42.1077 32.6867 41.0247 39.802C40.8771 40.7783 40.6753 41.8496 39.9048 42.4669C39.2526 42.989 38.3249 43.0472 37.5194 42.8259C36.7139 42.6027 36.0036 42.135 35.3068 41.675C32.4168 39.7613 29.5249 37.8475 26.6349 35.9338C25.9478 35.4797 25.1831 34.8858 25.1909 34.0609C25.1948 33.564 25.4917 33.1215 25.7945 32.7275C28.306 29.4512 31.9296 27.1998 34.6255 24.0749C35.0059 23.6344 35.3049 22.8386 34.7828 22.5843C34.4722 22.433 34.1151 22.6387 33.8317 22.8347C30.2682 25.3094 26.7067 27.7859 23.1432 30.2606C21.9806 31.068 20.7617 31.8987 19.3604 32.0967C18.1066 32.2752 16.845 31.9259 15.632 31.5688C14.6149 31.2699 13.5998 30.9632 12.5886 30.6468C12.051 30.4799 11.4959 30.2994 11.0805 29.9209C10.6652 29.5425 10.4265 28.9058 10.6769 28.4012C10.8341 28.0848 11.1388 27.8849 11.459 27.7219L11.4629 27.7238Z" fill="currentColor"/>
</svg>
