<svg width="58" height="58" viewBox="0 0 58 58" fill="curentColor" xmlns="http://www.w3.org/2000/svg">
<path d="M36.9666 32.8485C35.9714 32.01 35.5118 31.7565 34.1376 30.9315C33.5652 30.5884 32.6926 30.2918 32.2348 30.2918C31.9222 30.2918 31.5477 30.531 31.3184 30.7604C30.7307 31.348 30.5381 32.0835 29.5079 32.0835C28.5001 32.0835 26.7398 31.0578 25.4767 29.7319C24.1508 28.4688 23.1251 26.7085 23.1251 25.7007C23.1251 24.6705 23.8472 24.4644 24.4348 23.8759C24.6642 23.6474 24.9168 23.273 24.9168 22.9603C24.9168 22.5026 24.6203 21.6435 24.2772 21.071C23.4521 19.6959 23.1995 19.2364 22.3601 18.242C22.0761 17.9051 21.7527 17.7511 21.4141 17.7502C20.8416 17.7493 20.09 18.0332 19.5812 18.4122C18.8162 18.9828 18.0162 19.7595 17.8021 20.727C17.7734 20.8587 17.7564 20.9913 17.751 21.1239C17.7098 22.1317 18.1058 23.1547 18.5331 24.021C19.5391 26.0626 20.8703 28.0388 22.3189 29.8036C22.782 30.368 23.2864 30.8929 23.8086 31.4C24.3157 31.9213 24.8406 32.4257 25.405 32.8897C27.1698 34.3383 29.146 35.6695 31.1876 36.6755C32.0458 37.0984 33.0563 37.4872 34.0543 37.4585C34.1967 37.454 34.3392 37.4379 34.4816 37.4065C35.4491 37.1933 36.2258 36.3925 36.7964 35.6274C37.1754 35.1186 37.4593 34.3679 37.4585 33.7945C37.4576 33.4559 37.3035 33.1325 36.9666 32.8485ZM37.4585 28.5002C36.964 28.5002 36.5626 28.0988 36.5626 27.6043V26.7085C36.5626 22.2634 32.9452 18.646 28.5001 18.646C28.0056 18.646 27.6043 18.2447 27.6043 17.7502C27.6043 17.2557 28.0056 16.8543 28.5001 16.8543C33.9333 16.8543 38.3543 21.2753 38.3543 26.7085V27.6043C38.3543 28.0988 37.953 28.5002 37.4585 28.5002ZM31.9562 26.7085C31.5585 26.7085 31.1948 26.4415 31.09 26.0384C30.8445 25.0969 30.1099 24.3614 29.172 24.1195C28.6927 23.995 28.4052 23.5068 28.5288 23.0275C28.6524 22.5491 29.1397 22.2616 29.6208 22.3843C31.1867 22.7901 32.414 24.0165 32.8234 25.586C32.9479 26.0653 32.6613 26.5535 32.1829 26.6789C32.1067 26.6986 32.0306 26.7085 31.9562 26.7085ZM34.771 27.6043C34.2765 27.6043 33.8751 27.203 33.8751 26.7085C33.8751 23.8526 31.6409 21.4965 28.7886 21.346C28.2941 21.3201 27.9151 20.8981 27.9411 20.4045C27.9671 19.91 28.3962 19.5302 28.8826 19.5571C32.6872 19.7577 35.6668 22.8994 35.6668 26.7085C35.6668 27.203 35.2655 27.6043 34.771 27.6043ZM28.5001 10.5835C24.4689 10.5835 18.1873 10.9544 14.3603 14.4499C11.6549 17.1437 10.5835 20.9223 10.5835 25.8127C10.5835 26.2176 10.5817 26.6691 10.5852 27.1564C10.5817 27.6428 10.5835 28.0944 10.5835 28.4993C10.5835 33.3896 11.6549 37.1682 14.3603 39.862C15.8169 41.1923 17.6337 42.0676 19.5418 42.6445V46.7528C19.5418 48.1825 20.4815 48.2085 20.6535 48.2085H20.6616C21.1041 48.2067 21.4866 47.9899 21.8701 47.6495C22.0143 47.5214 23.6796 45.6652 25.491 43.6353C26.5696 43.7042 27.5944 43.7293 28.4992 43.7293C32.5305 43.7293 38.8112 43.3576 42.6391 39.862C45.3436 37.1691 46.4159 33.3896 46.4159 28.4993C46.4159 28.0944 46.4177 27.6429 46.4141 27.1555C46.4177 26.6682 46.4159 26.2176 46.4159 25.8118C46.4159 20.9214 45.3445 17.1428 42.6391 14.449C38.8121 10.9544 32.5314 10.5835 28.5001 10.5835ZM43.7293 28.1875V28.4993C43.7293 32.8942 42.7931 35.889 40.7856 37.9163C37.308 41.0418 30.6833 41.0418 28.4992 41.0418C27.8345 41.0418 26.7559 41.0409 25.483 40.9522C25.1291 41.35 21.3335 45.5953 21.3335 45.5953V40.3431C19.4486 39.8907 17.5862 39.1489 16.2147 37.9172C14.2071 35.889 13.271 32.8942 13.271 28.4993V28.1875C13.271 27.8731 13.2701 27.5336 13.2727 27.1367C13.2701 26.7784 13.2701 26.4397 13.271 26.1244V25.8127C13.271 21.4177 14.2071 18.4229 16.2147 16.3957C19.6914 13.2701 26.317 13.2701 28.5001 13.2701C30.6833 13.2701 37.308 13.2701 40.7847 16.3957C42.7931 18.4229 43.7284 21.4177 43.7284 25.8127V26.1244C43.7284 26.4388 43.7293 26.7784 43.7266 27.1752C43.7293 27.5345 43.7293 27.8731 43.7293 28.1875Z" fill="currentColor"/>
</svg>
