<svg width="58" height="58" viewBox="0 0 58 58" fill="curentColor" xmlns="http://www.w3.org/2000/svg">
<path d="M33.9928 36.6901C26.9185 36.6901 21.1631 30.9327 21.1611 23.8584C21.1631 22.0652 22.6232 20.6069 24.4126 20.6069C24.5966 20.6069 24.7786 20.6224 24.9529 20.6534C25.3364 20.7173 25.7004 20.8471 26.0355 21.0427C26.0839 21.0717 26.1168 21.1182 26.1245 21.1724L26.8721 25.8841C26.8817 25.9402 26.8643 25.9945 26.8275 26.0351C26.415 26.4922 25.8883 26.8214 25.3015 26.986L25.0188 27.0653L25.1253 27.3384C26.0897 29.794 28.0534 31.7557 30.5109 32.724L30.7839 32.8324L30.8633 32.5497C31.0279 31.9629 31.3571 31.4362 31.8142 31.0237C31.8471 30.9927 31.8916 30.9772 31.9362 30.9772C31.9459 30.9772 31.9555 30.9772 31.9672 30.9792L36.6788 31.7267C36.735 31.7364 36.7815 31.7673 36.8105 31.8157C37.0042 32.1508 37.1339 32.5168 37.1998 32.9002C37.2308 33.0707 37.2443 33.2508 37.2443 33.4386C37.2443 35.2299 35.7861 36.6882 33.9928 36.6901Z" fill="currentColor"/>
<path d="M46.5376 27.0538C46.1561 22.7431 44.1808 18.744 40.9758 15.7946C37.7515 12.8278 33.5685 11.1934 29.1938 11.1934C19.5923 11.1934 11.7802 19.0055 11.7802 28.607C11.7802 31.8294 12.6691 34.9686 14.3519 37.703L10.5989 46.0108L22.6153 44.7308C24.7048 45.5868 26.9164 46.0205 29.1918 46.0205C29.7902 46.0205 30.4041 45.9896 31.02 45.9256C31.5622 45.8675 32.1102 45.7823 32.6486 45.6739C40.6892 44.0491 46.5589 36.9129 46.6054 28.6999V28.607C46.6054 28.0841 46.5822 27.5612 46.5357 27.0558L46.5376 27.0538ZM23.0781 41.0842L16.4299 41.793L18.4149 37.3951L18.0179 36.8625C17.9888 36.8238 17.9598 36.7851 17.9269 36.7405C16.2033 34.3605 15.2931 31.5486 15.2931 28.6089C15.2931 20.944 21.5288 14.7083 29.1938 14.7083C36.3745 14.7083 42.4612 20.3107 43.048 27.4624C43.0789 27.8459 43.0964 28.2313 43.0964 28.6108C43.0964 28.7193 43.0944 28.8258 43.0925 28.9401C42.9453 35.352 38.466 40.7976 32.1993 42.1842C31.721 42.2907 31.231 42.372 30.743 42.4243C30.2356 42.4824 29.7147 42.5115 29.1976 42.5115C27.356 42.5115 25.5666 42.1551 23.876 41.4502C23.6881 41.3747 23.5041 41.2934 23.3318 41.2101L23.08 41.0881L23.0781 41.0842Z" fill="currentColor"/>
</svg>
